<svg aria-hidden="true" style="position: absolute; width: 0; height: 0; overflow: hidden;" version="1.1" xmlns="http://www.w3.org/2000/svg" xmlns:xlink="http://www.w3.org/1999/xlink">
<defs>
<symbol id="icon-eye" viewBox="0 0 32 32">
<path fill="#67717b" style="fill: var(--color1, #67717b)" d="M27.658 14.916c-2.104-3.095-6.19-7.61-11.658-7.61s-9.554 4.515-11.658 7.61c-0.314 0.463-0.314 1.028 0 1.49 2.104 3.095 6.19 7.61 11.658 7.61s9.554-4.515 11.658-7.61c0.315-0.463 0.315-1.028 0-1.49zM2.269 17.816c-0.893-1.313-0.893-2.995 0-4.308 2.153-3.167 6.896-8.707 13.731-8.707s11.578 5.54 13.731 8.707c0.893 1.313 0.893 2.995 0 4.308-2.153 3.167-6.896 8.707-13.731 8.707s-11.578-5.54-13.731-8.707zM13.493 15.661c0 1.368 1.121 2.507 2.542 2.507s2.541-1.139 2.541-2.506c0-1.368-1.121-2.506-2.541-2.506s-2.542 1.139-2.542 2.506zM16.034 10.648c2.788 0 5.048 2.244 5.048 5.013s-2.26 5.013-5.048 5.013c-2.788 0-5.048-2.244-5.048-5.013s2.26-5.013 5.048-5.013z"></path>
</symbol>
<symbol id="icon-eye-off" viewBox="0 0 32 32">
<path fill="none" stroke="#67717b" style="stroke: var(--color1, #67717b)" stroke-linejoin="round" stroke-linecap="round" stroke-miterlimit="4" stroke-width="2.88" d="M23.92 23.92c-2.279 1.737-5.055 2.7-7.92 2.747-9.333 0-14.667-10.667-14.667-10.667 1.659-3.091 3.959-5.791 6.747-7.92M13.2 5.653c0.918-0.215 1.857-0.322 2.8-0.32 9.333 0 14.667 10.667 14.667 10.667-0.809 1.514-1.775 2.94-2.88 4.253M18.827 18.827c-0.366 0.393-0.808 0.708-1.299 0.927s-1.020 0.336-1.557 0.346c-0.537 0.009-1.071-0.089-1.569-0.291s-0.95-0.501-1.33-0.88c-0.38-0.38-0.679-0.832-0.88-1.33s-0.3-1.032-0.29-1.569c0.009-0.537 0.127-1.067 0.346-1.558s0.534-0.932 0.927-1.298"></path>
<path fill="none" stroke="#67717b" style="stroke: var(--color1, #67717b)" stroke-linejoin="round" stroke-linecap="round" stroke-miterlimit="4" stroke-width="2.88" d="M1.333 1.333l29.333 29.333"></path>
</symbol>
<symbol id="icon-Vector-2" viewBox="0 0 37 32">
<path d="M18.667 0c-9.355 0-16.941 7.345-16.941 16.405 0 7.248 4.854 13.398 11.585 15.567 0.847 0.152 1.158-0.356 1.158-0.789 0-0.391-0.016-1.683-0.023-3.054-4.713 0.992-5.708-1.936-5.708-1.936-0.771-1.896-1.881-2.4-1.881-2.4-1.537-1.018 0.116-0.997 0.116-0.997 1.701 0.116 2.597 1.691 2.597 1.691 1.511 2.508 3.963 1.783 4.93 1.364 0.152-1.060 0.591-1.784 1.076-2.194-3.763-0.415-7.719-1.821-7.719-8.107 0-1.791 0.662-3.255 1.746-4.403-0.176-0.413-0.756-2.082 0.164-4.341 0 0 1.423-0.441 4.66 1.682 1.351-0.364 2.801-0.546 4.24-0.552 1.44 0.006 2.89 0.189 4.244 0.552 3.233-2.123 4.654-1.682 4.654-1.682 0.922 2.26 0.342 3.928 0.166 4.341 1.086 1.149 1.743 2.612 1.743 4.403 0 6.301-3.963 7.688-7.736 8.094 0.608 0.509 1.149 1.507 1.149 3.038 0 2.195-0.020 3.962-0.020 4.502 0 0.437 0.305 0.948 1.164 0.787 6.728-2.172 11.576-8.319 11.576-15.565 0-9.060-7.585-16.405-16.941-16.405zM8.071 23.369c-0.037 0.081-0.17 0.106-0.29 0.050-0.123-0.053-0.192-0.165-0.152-0.246 0.036-0.084 0.169-0.107 0.292-0.051 0.123 0.053 0.193 0.166 0.151 0.247zM8.904 24.089c-0.081 0.073-0.239 0.039-0.346-0.076-0.111-0.114-0.132-0.267-0.050-0.341 0.083-0.073 0.236-0.039 0.348 0.076 0.111 0.116 0.132 0.268 0.048 0.341zM9.476 25.011c-0.104 0.070-0.274 0.004-0.378-0.142-0.104-0.146-0.104-0.321 0.002-0.391s0.272-0.007 0.379 0.138c0.104 0.148 0.104 0.323-0.003 0.395zM10.443 26.078c-0.093 0.099-0.291 0.073-0.435-0.063-0.148-0.132-0.189-0.32-0.096-0.419s0.293-0.071 0.439 0.063c0.147 0.132 0.192 0.321 0.093 0.419zM11.692 26.438c-0.041 0.128-0.231 0.187-0.423 0.132-0.192-0.056-0.317-0.207-0.278-0.337 0.040-0.129 0.231-0.19 0.424-0.132 0.191 0.056 0.317 0.206 0.277 0.336zM13.114 26.591c0.005 0.135-0.158 0.247-0.359 0.25-0.203 0.004-0.366-0.105-0.369-0.238 0-0.137 0.159-0.248 0.362-0.251 0.201-0.004 0.366 0.105 0.366 0.239zM14.511 26.539c0.024 0.132-0.116 0.268-0.316 0.304-0.197 0.035-0.379-0.047-0.404-0.178-0.024-0.135 0.118-0.271 0.315-0.306 0.2-0.034 0.38 0.046 0.405 0.18z"></path>
</symbol>
<symbol id="icon-Vector-1--" viewBox="0 0 32 32">
<path fill="#4285f4" style="fill: var(--color2, #4285f4)" d="M32 16.364c0-1.135-0.104-2.225-0.297-3.273h-15.377v6.189h8.787c-0.378 2-1.529 3.695-3.258 4.829v4.014h5.276c3.087-2.785 4.868-6.887 4.868-11.76z"></path>
<path fill="#34a853" style="fill: var(--color3, #34a853)" d="M16.327 32c4.408 0 8.104-1.433 10.805-3.876l-5.276-4.014c-1.462 0.96-3.332 1.527-5.529 1.527-4.252 0-7.852-2.815-9.135-6.596h-5.455v4.145c2.686 5.229 8.208 8.815 14.59 8.815z"></path>
<path fill="#fbbc05" style="fill: var(--color4, #fbbc05)" d="M7.191 19.040c-0.327-0.96-0.512-1.985-0.512-3.040s0.186-2.080 0.512-3.040v-4.145h-5.455c-1.143 2.23-1.738 4.69-1.737 7.185 0 2.582 0.631 5.025 1.737 7.185l5.455-4.145z"></path>
<path fill="#ea4335" style="fill: var(--color5, #ea4335)" d="M16.327 6.364c2.397 0 4.549 0.807 6.241 2.393l4.683-4.589c-2.828-2.582-6.523-4.167-10.924-4.167-6.382 0-11.904 3.585-14.59 8.815l5.455 4.145c1.284-3.782 4.883-6.596 9.135-6.596z"></path>
</symbol>
<symbol id="icon-Vector--" viewBox="0 0 179 32">
<path fill="#316fea" style="fill: var(--color6, #316fea)" d="M0 16.077c0-8.812 6.349-15.768 16.029-15.768s16.029 6.957 16.029 15.768c0 3.169-0.852 6.106-2.245 8.502l2.71 2.319-4.414 5.101-2.942-2.628c-2.478 1.546-5.575 2.473-9.060 2.473-9.757 0.077-16.106-6.802-16.106-15.768zM7.743 16.077c0 5.101 3.407 8.889 8.208 8.889 1.162 0 2.323-0.232 3.252-0.618l-2.555-2.241 4.336-5.024 2.633 2.319c0.31-1.005 0.542-2.087 0.542-3.246 0-5.024-3.33-8.812-8.208-8.812s-8.208 3.71-8.208 8.734z"></path>
<path fill="#316fea" style="fill: var(--color6, #316fea)" d="M41.967 21.952c0.155 2.010 2.168 3.787 4.801 3.787 2.71 0 4.336-1.778 4.801-2.473l4.801 3.71c-0.62 1.314-3.794 5.024-9.757 5.024-7.511 0-12.157-5.179-12.157-11.903s4.569-12.058 11.228-12.058c7.279 0 11.228 4.638 11.228 12.444 0 0.464 0 0.927-0.077 1.469h-14.867zM42.199 17.391h7.434c-0.077-1.855-1.471-3.401-3.717-3.401-2.401 0-3.562 1.778-3.717 3.401z"></path>
<path fill="#316fea" style="fill: var(--color6, #316fea)" d="M72.319 18.396c0-2.164-1.239-3.246-3.020-3.246-2.013 0-3.175 1.469-3.175 3.246v13.604h-7.279v-22.802h7.124v2.319c0.852-1.314 2.865-2.937 5.73-2.937 7.124 0 7.821 6.106 7.821 10.744v12.676h-7.279v-13.604h0.078z"></path>
<path fill="#316fea" style="fill: var(--color6, #316fea)" d="M98.645 24.039l1.936 5.952c-1.549 1.082-3.872 2.010-6.737 2.010-7.279 0-12.389-4.947-12.389-11.981s5.343-11.981 12.389-11.981c2.942 0 5.188 0.928 6.814 2.087l-1.936 6.106c-1.239-1.082-2.865-1.7-4.569-1.7-3.407 0-5.343 2.396-5.343 5.411 0 3.324 2.245 5.642 5.653 5.642 1.549 0.077 3.175-0.696 4.181-1.546z"></path>
<path fill="#316fea" style="fill: var(--color6, #316fea)" d="M114.983 8.039c7.356 0 12.544 5.024 12.544 11.981 0 6.879-5.343 11.981-12.544 11.981-7.279 0-12.39-5.024-12.39-11.903-0.077-6.957 5.266-12.058 12.39-12.058zM114.983 25.584c3.019 0 5.265-2.319 5.265-5.642s-2.323-5.565-5.265-5.565c-3.020 0-5.111 2.319-5.111 5.642-0.077 3.324 2.091 5.565 5.111 5.565z"></path>
<path fill="#316fea" style="fill: var(--color6, #316fea)" d="M146.883 29.681c-0.619 0.773-2.865 2.319-6.194 2.319-6.582 0-11.228-4.947-11.228-11.981 0-7.111 4.181-11.981 10.841-11.981 3.484 0 5.652 1.778 6.117 2.319v-10.357h7.279v31.459h-6.815v-1.778zM141.695 14.377c-2.942 0-4.955 2.319-4.955 5.642 0 3.401 2.013 5.565 4.955 5.565 3.175 0 4.956-2.551 4.956-5.565-0.077-3.555-2.091-5.643-4.956-5.643z"></path>
<path fill="#316fea" style="fill: var(--color6, #316fea)" d="M163.143 21.952c0.155 2.010 2.168 3.787 4.801 3.787 2.71 0 4.336-1.778 4.801-2.473l4.8 3.71c-0.619 1.314-3.794 5.024-9.756 5.024-7.511 0-12.157-5.179-12.157-11.903s4.568-12.058 11.228-12.058c7.278 0 11.227 4.638 11.227 12.444 0 0.464 0 0.927-0.077 1.469h-14.867zM163.375 17.391h7.434c-0.078-1.855-1.471-3.401-3.717-3.401-2.4 0-3.562 1.778-3.717 3.401z"></path>
</symbol>
</defs>
</svg>
